<?xml version="1.0" standalone="no"?>
<!DOCTYPE svg PUBLIC "-//W3C//DTD SVG 20010904//EN"
 "http://www.w3.org/TR/2001/REC-SVG-20010904/DTD/svg10.dtd">
<svg version="1.0" xmlns="http://www.w3.org/2000/svg"
 width="1024.000000pt" height="1024.000000pt" viewBox="0 0 1024.000000 1024.000000"
 preserveAspectRatio="xMidYMid meet">

<g transform="translate(0.000000,1024.000000) scale(0.100000,-0.100000)"
fill="#000000" stroke="none">
<path d="M5305 8814 c-11 -2 -110 -9 -220 -14 -110 -6 -227 -15 -260 -20 -33
-5 -89 -14 -125 -19 -36 -6 -85 -15 -110 -20 -25 -6 -67 -15 -95 -21 -58 -12
-126 -27 -175 -40 -81 -21 -127 -32 -158 -37 -18 -3 -35 -9 -38 -14 -3 -5 -16
-9 -29 -9 -13 0 -27 -4 -30 -10 -3 -5 -15 -10 -26 -10 -10 0 -27 -4 -37 -10
-9 -5 -46 -19 -82 -30 -66 -22 -81 -27 -135 -50 -37 -16 -74 -30 -100 -40
-102 -38 -317 -149 -468 -241 -49 -30 -107 -66 -130 -80 -23 -14 -64 -31 -92
-38 -114 -29 -165 -67 -241 -180 -24 -36 -105 -128 -181 -205 -130 -132 -298
-326 -353 -406 -13 -19 -27 -37 -30 -40 -10 -8 -190 -279 -190 -286 0 -3 -8
-18 -19 -32 -59 -83 -189 -339 -231 -452 -7 -19 -21 -54 -31 -77 -11 -24 -19
-49 -19 -57 0 -8 -5 -18 -10 -21 -6 -3 -10 -15 -10 -26 0 -10 -4 -27 -9 -37
-16 -31 -29 -66 -42 -107 -6 -22 -15 -48 -20 -57 -5 -10 -9 -29 -9 -42 0 -14
-4 -27 -9 -30 -5 -3 -11 -20 -14 -38 -3 -18 -11 -54 -16 -80 -25 -111 -32
-146 -42 -193 -5 -27 -14 -72 -20 -100 -55 -279 -55 -924 1 -1225 26 -145 40
-208 60 -290 6 -25 14 -60 17 -78 3 -18 9 -35 14 -38 5 -3 9 -15 9 -26 0 -18
48 -172 70 -223 4 -11 18 -47 30 -80 12 -33 30 -78 40 -100 61 -136 77 -171
127 -270 31 -60 64 -122 74 -137 11 -14 19 -29 19 -32 0 -15 246 -376 285
-420 6 -6 17 -21 26 -32 43 -63 249 -281 351 -372 l37 -33 3 -222 c3 -246 7
-264 67 -304 34 -23 37 -23 368 -23 341 0 362 -2 390 -39 18 -24 16 -87 -4
-107 -41 -41 -50 -41 -739 -38 -655 4 -662 4 -687 -17 -61 -47 -53 -155 13
-178 46 -15 114 -13 185 6 80 22 191 22 355 -1 129 -19 228 -20 2130 -23 1097
-1 2018 -6 2045 -9 75 -10 162 -9 235 3 78 13 310 10 400 -6 105 -17 315 18
375 63 22 17 39 21 31 8 -2 -4 -1 -14 4 -22 8 -13 42 -14 202 -11 106 1 195 6
198 10 9 13 97 31 152 31 56 0 85 -11 74 -28 -7 -12 52 -32 94 -32 41 0 92 18
117 42 31 29 32 95 2 127 -37 39 -62 42 -289 35 -254 -8 -466 1 -474 21 -2 7
5 37 17 67 19 47 22 78 27 294 l5 241 105 95 c490 442 878 1069 1058 1713 332
1181 109 2383 -621 3350 -34 44 -64 82 -67 85 -3 3 -13 15 -22 28 -72 105
-411 441 -543 539 -240 176 -255 186 -399 272 -56 34 -390 202 -446 225 -25
10 -58 24 -75 31 -16 7 -50 21 -75 30 -25 9 -54 21 -65 25 -11 5 -51 19 -90
31 -38 12 -78 25 -87 30 -10 5 -29 9 -42 9 -14 0 -27 4 -30 9 -3 5 -20 11 -38
14 -18 3 -52 10 -75 16 -135 34 -175 43 -278 62 -33 6 -82 15 -110 20 -121 22
-191 30 -355 38 -96 5 -220 12 -275 14 -55 3 -109 4 -120 1z m301 -244 c422
-24 784 -102 1182 -253 95 -35 130 -53 120 -59 -9 -7 -8 -8 6 -4 23 8 138 -43
129 -57 -4 -6 -1 -7 6 -3 17 11 72 -13 64 -28 -3 -6 -3 -8 1 -4 8 7 135 -56
246 -123 90 -54 100 -61 93 -72 -3 -6 -1 -7 4 -4 20 13 268 -168 256 -186 -3
-6 -1 -7 5 -3 6 4 23 -3 37 -16 19 -16 22 -24 13 -31 -9 -5 -5 -6 9 -2 15 4
26 0 36 -16 9 -11 31 -32 51 -45 20 -14 36 -30 36 -36 0 -7 -7 -5 -17 4 -23
19 -53 20 -46 0 5 -10 8 -11 13 -1 6 9 12 8 25 -4 9 -10 21 -15 26 -11 14 8
41 -17 35 -32 -3 -8 0 -11 8 -8 18 7 38 -20 30 -40 -4 -11 -19 -16 -50 -16
-24 0 -44 -5 -44 -10 0 -16 33 -26 38 -12 5 15 71 16 107 2 15 -6 29 -19 32
-30 3 -11 9 -18 13 -15 5 3 11 1 15 -5 8 -13 -11 -13 -37 1 -15 8 -19 8 -14 0
10 -15 -7 -14 -23 2 -11 10 -13 10 -7 0 5 -10 -10 -13 -63 -13 -41 0 -71 4
-71 10 0 6 -25 10 -55 10 -40 0 -55 4 -55 14 0 17 -88 28 -107 14 -8 -6 -16
-3 -25 11 -16 26 -28 27 -28 1 0 -11 7 -20 15 -20 17 0 18 -2 9 -24 -9 -23
-24 -20 -24 4 0 17 -7 20 -40 20 -33 0 -40 -3 -40 -20 0 -11 -4 -20 -10 -20
-5 0 -10 6 -10 14 0 8 5 18 10 21 6 3 10 15 10 26 0 13 7 19 22 19 14 0 19 3
12 10 -6 6 -34 6 -78 -1 -49 -7 -72 -6 -82 2 -23 19 -47 2 -40 -29 3 -15 3
-21 -1 -13 -5 11 -7 11 -15 0 -6 -10 -7 -7 -3 8 5 18 3 22 -9 17 -9 -3 -16 -1
-16 6 0 6 5 8 12 4 8 -5 9 -2 5 9 -18 44 -18 50 1 24 l19 -29 7 26 c3 14 13
26 21 26 7 0 17 5 20 10 3 6 -4 10 -15 10 -14 0 -24 -8 -27 -21 -4 -16 -8 -17
-14 -7 -12 19 -11 28 3 26 7 -2 14 8 16 22 2 22 1 23 -10 9 -9 -11 -23 -15
-46 -11 -35 5 -39 -3 -17 -32 8 -11 15 -25 15 -30 0 -6 -9 3 -20 19 -14 20
-19 39 -16 58 3 15 2 25 -3 22 -5 -3 -11 1 -14 7 -2 7 -8 10 -12 6 -4 -4 -2
-16 6 -25 12 -17 12 -17 -5 -1 -20 18 -13 43 10 34 8 -3 14 -1 14 5 0 6 -8 13
-19 16 -10 2 -24 15 -31 28 -15 27 -39 40 -52 27 -5 -5 -1 -15 8 -23 16 -12
17 -12 11 5 -7 16 -5 17 9 5 10 -8 12 -15 5 -17 -6 -2 -8 -9 -5 -15 4 -7 -4
-2 -17 10 -13 13 -23 35 -24 50 0 19 -6 29 -19 31 -13 3 -16 0 -11 -10 5 -7 4
-10 -1 -5 -5 5 -9 13 -9 19 0 6 -8 12 -18 14 -11 1 -22 6 -25 10 -4 4 1 4 11
1 9 -4 17 -2 17 3 0 6 -4 10 -9 10 -5 0 -11 9 -14 20 -3 12 -14 21 -29 22 -42
2 -47 3 -53 10 -3 3 -1 9 6 14 8 5 10 3 4 -6 -5 -9 -4 -11 4 -6 18 12 2 27
-17 17 -12 -6 -24 -5 -37 5 -10 8 -14 14 -9 14 6 0 16 -6 23 -12 11 -11 12
-10 5 2 -5 8 -9 20 -9 25 0 6 -11 10 -25 11 -45 2 -51 4 -45 14 3 6 11 10 16
10 6 0 7 -5 3 -11 -4 -8 0 -8 15 0 12 7 25 10 30 7 4 -3 8 1 8 9 0 10 -5 11
-18 4 -22 -11 -32 -12 -25 -1 2 4 -4 8 -14 8 -10 0 -17 -3 -14 -7 2 -4 -2 -9
-10 -12 -9 -4 -13 2 -12 16 1 15 -7 23 -31 29 -18 5 -33 13 -33 18 0 5 -8 7
-17 4 -15 -5 -15 -3 1 10 23 18 8 21 -26 5 -19 -8 -35 -6 -73 9 -28 11 -50 24
-50 28 0 5 -4 15 -8 22 -5 7 -3 12 5 13 7 0 4 4 -7 9 -19 8 -19 9 -1 9 11 1
17 3 14 6 -3 3 -25 1 -49 -6 -55 -14 -120 -18 -113 -7 4 7 -116 11 -362 13
-33 0 -40 3 -37 16 4 13 -4 18 -40 20 -38 4 -43 2 -39 -13 2 -10 -1 -18 -7
-18 -6 0 -11 5 -11 10 0 15 -29 12 -46 -5 -13 -12 -157 -14 -1054 -14 -719 1
-1042 4 -1047 12 -3 5 -1 7 5 3 6 -3 13 -2 17 4 10 16 -65 12 -81 -5 -18 -18
-59 -19 -120 -4 -40 10 -43 13 -27 24 11 7 28 15 38 17 11 1 22 5 25 8 28 32
450 187 471 174 5 -3 9 -1 9 4 0 10 15 15 225 68 397 101 792 139 1211 114z
m1004 -460 c13 -9 13 -10 0 -9 -8 0 -24 4 -35 9 l-20 9 20 0 c11 0 27 -4 35
-9z m185 -90 c3 -6 -1 -7 -9 -4 -18 7 -21 14 -7 14 6 0 13 -4 16 -10z m-483
-327 c3 -245 9 -270 80 -326 49 -39 115 -46 456 -47 l272 0 0 -56 c0 -44 -3
-55 -14 -51 -83 32 -398 33 -516 2 -136 -37 -266 -111 -353 -204 l-48 -51
-650 0 -651 0 -29 -29 c-23 -23 -29 -38 -29 -71 0 -33 6 -48 29 -71 l29 -29
592 0 c560 0 592 -1 585 -17 -23 -56 -45 -167 -45 -230 0 -39 -5 -84 -11 -100
-19 -50 -38 -170 -45 -283 l-7 -110 -83 0 -82 0 -4 163 c-3 156 -4 164 -31
209 -60 103 -91 110 -443 106 l-281 -3 -41 -27 c-22 -15 -54 -49 -69 -75 -27
-46 -28 -53 -31 -210 l-4 -163 -221 0 c-124 0 -239 -5 -260 -11 -50 -14 -106
-64 -131 -119 -20 -43 -21 -64 -24 -473 l-3 -429 -192 4 c-174 3 -196 5 -232
25 -49 26 -76 54 -106 113 -23 44 -24 53 -29 365 -4 231 -9 326 -18 342 -19
34 -53 53 -93 53 -47 0 -85 -30 -99 -78 -16 -58 -13 -583 4 -663 31 -144 124
-268 248 -328 76 -37 179 -51 379 -51 l136 0 7 -87 c11 -131 39 -183 121 -226
38 -20 54 -21 272 -18 245 2 264 -1 306 -46 16 -19 16 -22 -3 -66 l-21 -47
-620 0 -621 0 -29 -29 c-41 -41 -41 -98 0 -143 l29 -33 605 -3 606 -3 10 -50
c6 -27 18 -63 26 -79 8 -16 15 -34 15 -40 0 -7 -197 -10 -631 -10 l-631 0 -29
-29 c-41 -41 -41 -101 0 -142 l29 -29 749 0 749 0 86 -29 c120 -41 239 -54
488 -54 267 -1 424 21 604 83 33 11 63 20 68 20 4 0 8 -308 8 -685 l0 -685
-253 0 c-373 0 -416 -15 -634 -222 -74 -71 -149 -136 -166 -146 -30 -16 -120
-17 -1274 -20 l-1243 -2 0 2685 0 2685 60 0 60 0 1 -742 c1 -409 3 -1529 4
-2491 4 -1926 -1 -1799 65 -1879 17 -20 49 -46 73 -57 43 -21 49 -21 1103 -21
l1060 0 44 23 c55 27 82 67 99 143 18 84 67 178 114 220 22 20 69 50 106 68
l66 31 229 -2 c277 -3 296 3 296 87 0 49 -22 53 -228 48 -184 -5 -185 -5 -221
19 -33 23 -44 25 -118 21 -72 -4 -93 -10 -165 -46 -137 -67 -234 -182 -280
-330 l-23 -72 -1002 0 -1003 0 -2 2673 c-3 2576 -4 2674 -22 2727 -10 30 -30
78 -45 105 -14 28 -27 53 -29 58 -2 4 716 7 1596 7 l1600 0 4 -217z m326 146
c92 -47 265 -174 337 -248 l49 -51 -247 0 -247 0 0 170 c0 140 2 170 14 170 8
0 50 -18 94 -41z m-3678 -128 c11 -29 23 -80 27 -112 l6 -59 -62 0 c-47 0 -63
4 -68 16 -8 20 15 156 34 201 12 30 16 34 28 22 8 -8 23 -38 35 -68z m5050
-186 c11 -13 10 -14 -4 -9 -9 3 -16 10 -16 15 0 13 6 11 20 -6z m-512 -22 c-2
-10 -10 -18 -18 -18 -8 0 -16 8 -18 18 -2 12 3 17 18 17 15 0 20 -5 18 -17z
m-38 -49 c0 -8 -4 -14 -10 -14 -5 0 -10 9 -10 21 0 11 5 17 10 14 6 -3 10 -13
10 -21z m220 16 c0 -5 -2 -10 -4 -10 -3 0 -8 5 -11 10 -3 6 -1 10 4 10 6 0 11
-4 11 -10z m-323 -57 c-3 -10 -5 -4 -5 12 0 17 2 24 5 18 2 -7 2 -21 0 -30z
m278 7 c47 -7 45 -7 -32 -9 -50 0 -83 3 -83 9 0 11 43 12 115 0z m474 -4 c10
-12 -14 -14 -171 -13 l-183 1 165 6 c147 5 155 6 80 11 l-85 5 91 2 c69 1 94
-2 103 -12z m51 -246 c0 -5 9 -10 20 -10 11 0 20 5 20 10 0 6 16 10 35 10 21
0 35 -5 35 -12 0 -9 4 -8 10 2 9 12 18 7 51 -30 38 -44 58 -85 45 -97 -3 -3
-16 2 -28 13 l-22 19 19 -26 c11 -14 30 -31 43 -37 21 -9 23 -9 18 6 -3 9 7 1
24 -18 30 -36 36 -50 21 -50 -5 0 -11 10 -14 22 -5 18 -8 19 -21 8 -9 -7 -16
-8 -16 -2 0 5 -9 8 -20 5 -14 -4 -20 0 -20 13 0 34 -30 54 -79 52 l-46 -1 42
-4 c37 -4 44 -8 49 -31 4 -15 11 -33 17 -39 6 -9 6 -13 -1 -13 -6 0 -14 9 -17
20 -6 18 -15 20 -88 20 -45 0 -89 5 -97 10 -13 8 -12 10 3 10 9 0 17 5 17 11
0 8 -11 9 -32 4 -67 -14 -108 -17 -125 -10 -10 5 -33 9 -51 10 -33 1 -33 1
-32 -39 3 -66 3 -66 -40 -66 l-40 0 0 55 c0 48 -3 55 -19 55 -11 0 -23 5 -26
10 -11 17 -35 11 -35 -9 0 -25 -77 -36 -100 -13 -13 13 -13 14 3 9 13 -5 17
-1 17 19 0 24 -3 25 -45 23 -44 -3 -89 20 -72 38 4 3 51 10 105 13 l97 7 -112
1 c-68 1 -113 6 -113 12 0 6 15 11 33 12 27 1 26 2 -13 8 -25 4 100 8 278 8
209 1 322 -2 322 -8z m-5772 -48 c-9 -2 -20 -12 -23 -22 -3 -10 -13 -24 -22
-32 -14 -11 -16 -11 -8 2 26 47 48 70 58 63 8 -5 7 -9 -5 -11z m5112 -17 c-14
-8 -29 -14 -35 -14 -5 0 1 6 15 14 14 8 30 14 35 14 6 0 -1 -6 -15 -14z
m-5103 -25 c0 -25 -2 -27 -12 -13 -10 14 -5 36 11 43 0 0 1 -13 1 -30z m-24
-23 c3 -7 -3 -13 -14 -13 -13 0 -15 3 -7 13 6 7 12 13 13 13 2 0 5 -6 8 -13z
m4662 -46 c153 -31 260 -80 393 -180 170 -126 263 -291 284 -501 12 -113 12
-296 0 -314 -3 -6 -5 -21 -3 -33 1 -13 -3 -23 -9 -23 -8 0 -10 -10 -8 -25 3
-15 1 -22 -5 -18 -6 4 -8 -2 -5 -15 4 -12 2 -22 -2 -22 -5 0 -12 21 -15 48
-11 83 -15 98 -26 81 -7 -11 -9 -9 -9 9 0 12 -9 31 -20 42 -18 18 -31 20 -134
17 -63 -1 -107 -5 -98 -9 9 -5 -64 -6 -163 -4 -167 3 -323 23 -380 46 -14 6
-10 7 13 3 25 -4 32 -2 32 11 0 13 -6 15 -27 11 -19 -4 -22 -3 -10 3 14 6 7
11 -30 21 -54 16 -86 35 -76 44 3 4 1 7 -5 7 -5 0 -12 -6 -15 -12 -3 -10 -9
-9 -23 4 -10 9 -32 21 -47 27 -27 11 -202 137 -238 172 -9 9 -25 30 -35 48
-19 32 -44 42 -44 16 0 -24 -16 -18 -29 11 -14 31 -9 41 8 20 13 -15 45 -11
35 5 -3 5 2 9 11 9 9 0 13 5 10 10 -8 13 -8 13 40 -5 80 -29 165 -12 195 38
24 39 26 94 3 127 -23 34 -29 37 -105 61 -76 23 -113 48 -121 81 -14 52 151
164 283 192 95 21 267 19 375 -3z m552 12 c-4 -3 -1 -13 6 -22 11 -14 10 -14
-5 -2 -16 12 -16 31 -1 31 4 0 3 -3 0 -7z m-5277 -23 c6 -11 7 -20 3 -19 -20
3 -27 -2 -13 -11 12 -7 11 -9 -6 -8 -11 1 -21 8 -21 15 0 6 4 10 9 7 7 -5 12
10 9 29 -2 14 8 7 19 -13z m5325 10 c3 -5 1 -10 -4 -10 -6 0 -11 5 -11 10 0 6
2 10 4 10 3 0 8 -4 11 -10z m795 -50 c0 -5 -15 -10 -32 -9 -31 1 -32 1 -8 9
35 11 40 11 40 0z m-373 -10 c-16 -5 -38 -5 -50 0 -17 7 -10 9 28 9 43 -1 46
-2 22 -9z m-116 -57 c-8 -15 -10 -15 -11 -2 0 17 10 32 18 25 2 -3 -1 -13 -7
-23z m30 -20 c-8 -15 -10 -15 -11 -2 0 17 10 32 18 25 2 -3 -1 -13 -7 -23z
m-221 7 c0 -5 -2 -10 -4 -10 -3 0 -8 5 -11 10 -3 6 -1 10 4 10 6 0 11 -4 11
-10z m170 -10 c0 -5 -15 -10 -34 -10 -19 0 -38 5 -41 10 -4 6 10 10 34 10 23
0 41 -4 41 -10z m0 -63 c0 -9 -12 -11 -40 -9 -48 5 -43 22 6 22 21 0 34 -5 34
-13z m-96 -19 c-3 -4 0 -8 7 -8 15 0 3 -13 -14 -16 -7 -1 -13 6 -13 16 0 9 6
17 13 17 7 0 10 -4 7 -9z m66 -28 c0 -5 -4 -10 -10 -10 -5 0 -10 5 -10 10 0 6
5 10 10 10 6 0 10 -4 10 -10z m-5730 -24 c0 -3 -4 -8 -10 -11 -5 -3 -10 -1
-10 4 0 6 5 11 10 11 6 0 10 -2 10 -4z m208 -3 c-21 -2 -57 -2 -80 0 -24 2 -7
4 37 4 44 0 63 -2 43 -4z m5965 0 c-7 -2 -19 -2 -25 0 -7 3 -2 5 12 5 14 0 19
-2 13 -5z m130 0 c-13 -2 -33 -2 -45 0 -13 2 -3 4 22 4 25 0 35 -2 23 -4z
m131 -2 c4 -5 -3 -7 -14 -4 -23 6 -26 13 -6 13 8 0 17 -4 20 -9z m-740 -9 c3
-5 -1 -9 -9 -9 -8 0 -12 4 -9 9 3 4 7 8 9 8 2 0 6 -4 9 -8z m209 -79 c-13 -2
-33 -2 -45 0 -13 2 -3 4 22 4 25 0 35 -2 23 -4z m530 -110 c-7 -2 -19 -2 -25
0 -7 3 -2 5 12 5 14 0 19 -2 13 -5z m-2202 -155 c11 -21 11 -22 -4 -9 -10 7
-17 17 -17 22 0 15 9 10 21 -13z m-830 -458 c-2 -351 -1 -366 18 -397 16 -26
28 -33 53 -33 40 -1 111 -11 117 -16 6 -5 -401 -414 -411 -414 -4 0 -37 31
-75 69 -109 110 -296 304 -320 331 l-22 25 72 2 c64 2 75 5 95 28 22 26 22 27
22 401 l0 374 227 -2 227 -3 -3 -365z m1074 290 c3 -5 -1 -10 -9 -10 -9 0 -16
5 -16 10 0 6 4 10 9 10 6 0 13 -4 16 -10z m-343 -93 c229 -184 570 -286 954
-287 l151 0 5 -63 c7 -81 37 -140 94 -180 39 -27 44 -35 39 -57 -21 -84 -170
-258 -286 -336 -219 -146 -499 -160 -739 -39 -66 33 -163 130 -207 205 -37 64
-77 194 -93 306 -14 100 -25 438 -16 488 7 34 9 37 24 23 9 -8 43 -35 74 -60z
m433 44 c3 -5 0 -13 -6 -17 -7 -4 -9 -3 -5 4 3 6 -3 12 -16 15 -23 4 -23 4 -1
6 12 0 24 -3 28 -8z m76 -14 c-1 -4 -3 -7 -6 -7 -3 0 -15 0 -27 1 -22 0 -22 1
-3 9 22 9 37 8 36 -3z m846 -189 c-3 -8 -6 -5 -6 6 -1 11 2 17 5 13 3 -3 4
-12 1 -19z m-2762 -208 l0 -55 -65 -8 c-35 -4 -79 -17 -97 -28 -42 -26 -83
-95 -83 -139 0 -70 36 -115 342 -426 325 -329 331 -334 398 -299 18 10 168
154 333 321 165 167 302 304 306 304 4 0 22 -34 41 -76 61 -137 182 -292 278
-357 26 -18 31 -27 27 -46 -25 -103 -255 -280 -445 -343 -95 -31 -95 -31 -380
-38 -190 -5 -296 -11 -317 -19 -31 -12 -35 -11 -74 23 -23 19 -62 45 -88 58
-44 22 -58 23 -318 26 l-273 3 0 573 c0 315 3 576 7 580 4 3 97 5 207 4 l201
-3 0 -55z m1079 18 c3 -24 7 -62 9 -85 l5 -41 -32 19 c-18 10 -60 22 -94 25
l-62 7 0 58 0 59 84 0 85 0 5 -42z m1536 -718 c15 8 32 -4 103 -73 87 -85 129
-146 195 -282 52 -107 58 -126 81 -225 19 -80 20 -118 18 -622 -2 -295 -5
-540 -9 -543 -3 -3 -8 3 -11 15 -3 11 -1 20 4 20 5 0 9 5 9 10 0 6 -7 10 -15
10 -8 0 -15 -8 -15 -17 0 -10 -3 -29 -7 -42 -4 -17 -3 -22 5 -17 7 4 12 2 12
-4 0 -6 4 -9 10 -5 5 3 5 -7 -1 -25 -13 -37 -22 -40 -13 -4 5 19 3 25 -4 20
-7 -4 -14 3 -18 19 -5 21 -12 25 -45 25 -29 0 -41 -5 -51 -22 -7 -13 -11 -28
-10 -35 2 -7 -5 -9 -18 -6 -33 9 -25 -33 10 -54 28 -16 36 -41 11 -35 -6 1
-11 -2 -11 -7 0 -13 -44 0 -53 16 -9 15 -37 18 -37 3 0 -5 -9 -10 -19 -10 -11
0 -21 -5 -23 -11 -2 -7 -47 -13 -121 -17 -116 -5 -117 -5 -117 18 l0 22 -160
-7 c-115 -5 -160 -4 -160 4 0 7 -28 11 -80 11 -47 0 -80 4 -80 10 0 6 -7 10
-16 10 -8 0 -12 -4 -9 -10 3 -5 2 -10 -4 -10 -22 0 -20 21 3 32 14 6 26 15 26
20 0 14 -19 9 -40 -12 -11 -11 -26 -20 -32 -19 -10 0 -10 2 0 6 6 2 12 12 12
20 0 9 7 21 16 28 13 9 15 19 9 41 -7 23 -9 25 -13 10 -8 -38 -24 -44 -49 -20
-18 18 -24 42 -34 128 -12 105 -29 143 -29 66 0 -22 -4 -40 -9 -40 -6 0 -12
-19 -14 -42 -2 -24 -4 23 -5 103 -2 179 5 244 24 228 11 -9 14 -7 15 12 0 22
1 22 8 5 8 -22 15 -15 25 26 3 16 11 27 17 25 18 -3 34 52 19 66 -10 9 -12 8
-7 -5 4 -12 2 -15 -9 -11 -21 8 -17 18 10 31 31 14 36 8 36 -46 0 -72 9 -44
11 35 2 65 5 75 31 100 41 39 58 75 58 123 0 92 -109 135 -182 72 -100 -86
-241 -177 -258 -167 -4 3 -10 -1 -13 -8 -5 -12 -105 -56 -196 -86 -41 -13 -51
-14 -31 -1 10 7 11 10 2 10 -7 0 -15 -6 -18 -14 -7 -19 -68 -35 -139 -37 -22
-1 -46 -6 -52 -12 -7 -5 -94 -11 -192 -13 -154 -2 -179 -1 -174 12 6 16 83 20
83 3 0 -14 209 -1 273 16 26 8 47 10 47 5 0 -4 16 -4 35 1 19 6 40 7 47 3 7
-5 8 -3 3 5 -5 8 -20 11 -44 7 -26 -4 -30 -3 -16 4 11 5 34 9 50 9 23 1 27 4
15 11 -11 7 -3 10 28 10 30 0 42 4 40 12 -3 8 -31 14 -81 16 -69 3 -77 1 -87
-18 -11 -20 -17 -21 -73 -15 -34 4 -65 12 -69 19 -6 8 -8 7 -8 -1 0 -9 -23
-13 -80 -13 -47 0 -80 -4 -80 -10 0 -5 -18 -10 -40 -10 -22 0 -40 5 -40 10 0
6 -18 10 -40 10 l-40 0 0 -40 c0 -37 -2 -40 -27 -40 -27 1 -27 1 -9 15 16 12
17 18 8 27 -7 7 -12 22 -12 34 0 32 -20 43 -67 37 -34 -4 -44 -1 -49 12 -6 14
-15 16 -50 10 -36 -5 -49 -2 -75 17 -20 15 -33 19 -36 12 -2 -7 -14 -10 -26
-7 -17 4 -19 3 -7 -6 8 -5 11 -13 7 -17 -4 -4 -15 0 -25 9 -10 10 -24 17 -31
17 -8 0 -11 13 -8 43 2 23 2 31 -1 17 l-5 -25 -7 25 c-7 23 -8 23 -9 -8 -1
-18 4 -43 10 -55 11 -21 10 -21 -6 -5 -11 10 -18 31 -18 50 0 18 -7 39 -14 47
-10 10 -13 32 -10 77 5 78 31 117 108 158 l53 29 281 1 c276 1 281 2 370 29
198 61 353 156 559 342 81 73 107 92 102 74 -3 -13 -3 -18 0 -11 8 17 22 15
28 -5 3 -10 4 -6 2 8 -2 22 1 25 18 21 21 -4 21 -4 1 12 -19 15 -18 15 13 5
26 -9 30 -14 21 -25 -9 -11 -7 -15 6 -20 9 -4 20 -3 24 2 15 21 47 32 66 22
23 -14 223 -2 241 13 8 6 14 8 14 4 0 -4 7 -2 15 5 8 6 31 12 52 13 21 0 43 4
50 9 6 5 20 9 30 8 35 -4 45 0 39 15 -3 9 0 15 10 15 8 0 12 4 9 10 -6 9 37 6
74 -6 9 -3 11 1 7 12 -4 12 -1 14 14 9 11 -4 20 -2 20 4 0 6 -4 11 -9 11 -5 0
-8 11 -7 24 0 14 5 21 11 17 6 -4 20 -8 33 -9 20 -1 22 1 11 14 -7 8 -8 14 -3
13 19 -4 44 14 44 32 0 20 33 44 38 28 2 -5 11 -5 22 1z m-503 -206 c-3 -3
-12 -4 -19 -1 -8 3 -5 6 6 6 11 1 17 -2 13 -5z m-84 -11 c-7 -2 -19 -2 -25 0
-7 3 -2 5 12 5 14 0 19 -2 13 -5z m65 -10 c-10 -2 -26 -2 -35 0 -10 3 -2 5 17
5 19 0 27 -2 18 -5z m-231 -9 c-3 -3 -12 -4 -19 -1 -8 3 -5 6 6 6 11 1 17 -2
13 -5z m160 0 c-3 -3 -12 -4 -19 -1 -8 3 -5 6 6 6 11 1 17 -2 13 -5z m-1697
-844 c0 -5 -5 -10 -11 -10 -5 0 -7 5 -4 10 3 6 8 10 11 10 2 0 4 -4 4 -10z
m65 -60 c3 -6 -1 -7 -9 -4 -18 7 -21 14 -7 14 6 0 13 -4 16 -10z m102 4 c-3
-3 -12 -4 -19 -1 -8 3 -5 6 6 6 11 1 17 -2 13 -5z m772 2 c-2 -2 -20 -6 -39
-10 -25 -4 -31 -3 -20 4 14 9 69 15 59 6z m-129 -26 c0 -5 -23 -10 -51 -10
-31 0 -48 4 -44 10 3 6 26 10 51 10 24 0 44 -4 44 -10z m-556 -25 c31 -4 58
-10 60 -14 7 -10 -131 12 -141 23 -5 5 -1 7 8 4 9 -4 41 -9 73 -13z m1276
-532 c0 -8 -4 -12 -9 -8 -5 3 -12 -7 -14 -22 -3 -20 -4 -16 -6 14 -1 34 2 41
14 37 8 -4 15 -13 15 -21z m1080 -73 c0 -11 7 -20 16 -20 11 0 14 -7 10 -31
-2 -17 -8 -34 -12 -37 -4 -4 -4 1 -1 11 7 19 -1 22 -23 6 -11 -8 -12 -12 -2
-16 19 -7 15 -21 -10 -34 -19 -9 -21 -9 -10 2 17 18 15 32 -3 25 -8 -3 -15 -1
-15 3 0 5 7 12 16 15 16 6 16 39 -1 79 -5 13 -2 17 14 17 14 0 21 -6 21 -20z
m-317 -147 c-13 -2 -33 -2 -45 0 -13 2 -3 4 22 4 25 0 35 -2 23 -4z m164 1
c-3 -3 -12 -4 -19 -1 -8 3 -5 6 6 6 11 1 17 -2 13 -5z m-324 -11 c-13 -2 -33
-2 -45 0 -13 2 -3 4 22 4 25 0 35 -2 23 -4z m332 -13 c3 -6 -4 -10 -18 -10
-25 0 -52 -22 -40 -33 3 -4 -1 -7 -10 -7 -17 0 -13 23 7 47 13 15 52 17 61 3z
m75 5 c0 -8 -62 -37 -67 -31 -3 3 10 12 28 20 42 18 39 17 39 11z m-923 -31
c-3 -3 -12 -4 -19 -1 -8 3 -5 6 6 6 11 1 17 -2 13 -5z m838 -4 c-3 -5 -10 -10
-16 -10 -5 0 -9 5 -9 10 0 6 7 10 16 10 8 0 12 -4 9 -10z m-145 -18 c0 -4 -73
-7 -162 -7 -90 0 -143 3 -118 6 68 9 280 10 280 1z m-587 -9 c-7 -2 -19 -2
-25 0 -7 3 -2 5 12 5 14 0 19 -2 13 -5z m774 -513 c12 -29 1 -788 -11 -822
-13 -39 -43 -84 -51 -76 -8 7 5 38 16 38 5 0 9 5 9 10 0 6 -9 10 -19 10 -10 0
-21 7 -25 15 -8 23 -29 18 -23 -5 4 -14 -2 -25 -17 -35 -25 -17 -76 -17 -76 0
0 5 -7 -3 -15 -19 -18 -35 -15 -40 31 -40 31 0 32 -1 14 -11 -11 -6 -17 -14
-13 -19 4 -4 0 -4 -10 0 -9 3 -14 10 -11 15 7 11 -3 11 -42 0 -36 -10 -76 5
-53 20 10 6 8 9 -8 9 -13 0 -23 5 -23 10 0 18 39 10 50 -10 16 -29 30 -25 17
5 -7 14 -16 25 -20 25 -5 0 -5 5 -1 11 4 8 9 7 15 -2 7 -11 11 -10 23 6 13 17
13 20 0 23 -8 2 -14 8 -14 13 0 6 5 7 10 4 13 -8 8 18 -5 27 -5 4 -20 8 -33 8
-19 0 -22 -4 -17 -20 5 -16 2 -20 -18 -20 -30 0 -40 -10 -26 -26 6 -7 9 -19 6
-26 -3 -8 -9 -3 -15 12 -6 15 -6 32 -1 42 6 10 5 19 -1 23 -5 3 -10 1 -10 -6
0 -7 -2 -10 -5 -7 -11 11 -7 646 4 666 15 28 85 81 150 115 41 21 76 30 129
34 65 5 72 8 73 27 0 14 2 16 6 6 2 -8 7 -22 10 -30z m-629 -437 c-3 -366 -4
-390 -23 -418 -35 -54 -73 -85 -102 -84 -27 1 -26 1 5 9 41 10 53 20 23 20
-12 0 -20 4 -17 9 4 5 3 16 0 25 -5 12 -10 14 -19 6 -7 -6 -25 -13 -39 -16
-22 -4 -26 -1 -26 21 0 23 4 25 45 25 33 0 45 -4 45 -15 0 -8 4 -15 9 -15 5 0
9 15 8 33 -2 32 -2 32 -47 28 -25 -2 -48 -8 -52 -15 -5 -7 -8 -6 -8 3 0 11 -3
12 -11 4 -8 -8 -20 -8 -43 -1 -17 6 -49 11 -71 12 -33 1 -41 5 -43 24 -2 12
-7 20 -12 17 -16 -10 15 -67 44 -82 15 -8 25 -10 22 -4 -4 7 1 11 13 11 16 0
19 -6 16 -35 -2 -26 2 -38 15 -45 22 -12 33 -13 26 -2 -2 4 4 8 15 8 10 0 19
-3 19 -7 0 -3 12 -4 27 -1 26 5 27 4 11 -11 -13 -13 -22 -15 -42 -8 -17 7 -26
7 -29 -2 -3 -9 -9 -8 -22 3 -10 8 -20 14 -22 13 -1 -2 -9 -3 -15 -3 -8 0 -9 3
-3 8 11 8 18 52 8 52 -3 0 -12 -8 -19 -17 -7 -10 -16 -14 -20 -10 -5 4 -2 13
6 18 12 8 10 10 -8 6 -19 -5 -39 12 -40 33 0 3 -6 18 -12 34 -7 20 -10 119 -8
303 l3 273 41 37 c22 21 50 45 61 53 29 22 137 79 159 83 10 3 38 8 62 12 23
4 42 12 42 17 0 5 7 2 16 -6 13 -14 15 -62 12 -403z m-238 -435 c0 -5 -4 -8
-10 -8 -5 0 -10 10 -10 23 0 18 2 19 10 7 5 -8 10 -18 10 -22z m570 0 c0 -12
-14 -10 -28 4 -19 19 -14 29 8 16 11 -7 20 -16 20 -20z m212 -42 c7 4 8 2 4
-5 -9 -13 -26 -5 -25 12 0 9 2 8 6 -1 2 -6 10 -9 15 -6z m-45 -32 c-3 -3 -12
-4 -19 -1 -8 3 -5 6 6 6 11 1 17 -2 13 -5z m-90 -10 c-3 -3 -12 -4 -19 -1 -8
3 -5 6 6 6 11 1 17 -2 13 -5z m364 -117 c-10 -9 -11 -8 -5 6 3 10 9 15 12 12
3 -3 0 -11 -7 -18z"/>
<path d="M5998 8513 c7 -3 16 -2 19 1 4 3 -2 6 -13 5 -11 0 -14 -3 -6 -6z"/>
<path d="M6108 8493 c7 -3 16 -2 19 1 4 3 -2 6 -13 5 -11 0 -14 -3 -6 -6z"/>
<path d="M6000 8389 c0 -5 5 -7 10 -4 6 3 10 8 10 11 0 2 -4 4 -10 4 -5 0 -10
-5 -10 -11z"/>
<path d="M6000 8250 c0 -6 7 -10 15 -10 8 0 15 2 15 4 0 2 -7 6 -15 10 -8 3
-15 1 -15 -4z"/>
<path d="M3738 8183 c-21 -5 -24 -23 -4 -23 8 0 16 7 20 15 3 8 4 14 3 14 -1
-1 -10 -3 -19 -6z"/>
<path d="M4000 8173 c0 -8 14 -13 40 -13 22 0 40 4 40 9 0 5 -18 11 -40 13
-28 2 -40 0 -40 -9z"/>
<path d="M4828 8183 c-55 -9 -27 -21 47 -21 41 0 75 4 75 9 0 5 -12 9 -27 9
-16 0 -37 2 -48 4 -11 2 -32 1 -47 -1z"/>
<path d="M5280 8182 c0 -5 7 -13 16 -16 25 -9 64 -7 64 4 0 6 -8 10 -17 10
-10 0 -28 3 -40 6 -13 4 -23 2 -23 -4z"/>
<path d="M5600 8175 c0 -10 10 -15 30 -15 35 0 40 15 8 24 -34 9 -38 8 -38 -9z"/>
<path d="M6480 8170 c0 -19 3 -21 12 -12 9 9 9 15 0 24 -9 9 -12 7 -12 -12z"/>
<path d="M6545 8180 c-8 -13 -1 -24 14 -19 6 3 7 10 2 18 -6 10 -10 10 -16 1z"/>
<path d="M7067 8179 c7 -7 15 -10 18 -7 3 3 -2 9 -12 12 -14 6 -15 5 -6 -5z"/>
<path d="M3680 8170 c0 -5 7 -7 15 -4 8 4 15 8 15 10 0 2 -7 4 -15 4 -8 0 -15
-4 -15 -10z"/>
<path d="M3874 8171 c7 -10 31 -9 42 2 4 4 -5 7 -20 7 -15 0 -25 -4 -22 -9z"/>
<path d="M6518 8143 c7 -3 16 -2 19 1 4 3 -2 6 -13 5 -11 0 -14 -3 -6 -6z"/>
<path d="M6725 8070 c-3 -5 1 -10 9 -10 9 0 16 5 16 10 0 6 -4 10 -9 10 -6 0
-13 -4 -16 -10z"/>
<path d="M7352 8004 c-7 -8 -8 -14 -3 -14 10 0 25 19 20 25 -2 1 -10 -3 -17
-11z"/>
<path d="M7280 7960 c0 -5 5 -10 10 -10 6 0 10 5 10 10 0 6 -4 10 -10 10 -5 0
-10 -4 -10 -10z"/>
<path d="M7450 7940 c-8 -5 -12 -11 -10 -14 3 -2 14 2 24 10 22 15 10 19 -14
4z"/>
<path d="M7353 7923 c9 -2 23 -2 30 0 6 3 -1 5 -18 5 -16 0 -22 -2 -12 -5z"/>
<path d="M7200 7856 c0 -9 7 -16 16 -16 9 0 14 5 12 12 -6 18 -28 21 -28 4z"/>
<path d="M7490 7831 c0 -5 7 -11 15 -15 9 -3 15 0 15 9 0 8 -7 15 -15 15 -8 0
-15 -4 -15 -9z"/>
<path d="M7440 7810 c0 -11 6 -20 14 -20 24 0 28 18 6 30 -17 9 -20 8 -20 -10z"/>
<path d="M7616 7785 c10 -8 23 -15 28 -15 6 0 1 7 -10 15 -10 8 -23 15 -28 15
-6 0 -1 -7 10 -15z"/>
<path d="M7360 7750 c0 -5 18 -10 40 -10 22 0 40 5 40 10 0 6 -18 10 -40 10
-22 0 -40 -4 -40 -10z"/>
<path d="M7498 7753 c7 -3 16 -2 19 1 4 3 -2 6 -13 5 -11 0 -14 -3 -6 -6z"/>
<path d="M7271 7724 c0 -11 3 -14 6 -6 3 7 2 16 -1 19 -3 4 -6 -2 -5 -13z"/>
<path d="M7440 7720 c0 -5 7 -10 15 -10 8 0 15 5 15 10 0 6 -7 10 -15 10 -8 0
-15 -4 -15 -10z"/>
<path d="M7647 7703 c-13 -12 -7 -23 13 -23 11 0 20 7 20 15 0 15 -21 21 -33
8z"/>
<path d="M7782 7698 c2 -6 10 -13 16 -14 7 -1 8 0 2 3 -5 2 -8 9 -4 14 3 5 0
9 -6 9 -7 0 -10 -5 -8 -12z"/>
<path d="M7430 7630 c0 -6 7 -10 15 -10 8 0 15 2 15 4 0 2 -7 6 -15 10 -8 3
-15 1 -15 -4z"/>
<path d="M7500 7603 c8 -3 18 -10 21 -16 4 -6 15 -7 25 -2 17 7 16 9 -6 15
-31 10 -64 12 -40 3z"/>
<path d="M7813 7587 c15 -14 27 -35 27 -46 0 -11 6 -23 13 -27 6 -4 9 -4 5 1
-4 4 0 13 9 20 18 13 10 35 -13 35 -8 0 -14 7 -14 15 0 8 -4 15 -9 15 -5 0
-18 3 -28 7 -12 4 -9 -2 10 -20z"/>
<path d="M7405 7570 c-8 -14 3 -30 21 -30 8 0 14 9 14 20 0 21 -24 28 -35 10z"/>
<path d="M7565 7570 c-8 -14 3 -30 21 -30 8 0 14 9 14 20 0 21 -24 28 -35 10z"/>
<path d="M8006 7481 c9 -9 45 -11 39 -2 -3 6 -14 9 -25 8 -10 -1 -17 -3 -14
-6z"/>
<path d="M3869 7486 c-219 -61 -368 -299 -330 -528 25 -152 124 -284 266 -354
65 -32 86 -37 167 -41 78 -4 104 -2 158 17 92 31 141 63 205 132 147 159 175
360 75 547 -57 106 -153 189 -256 221 -76 23 -211 26 -285 6z m226 -230 c101
-48 145 -117 144 -226 0 -72 -33 -155 -62 -155 -8 0 -19 -4 -24 -9 -4 -5 -3
-6 5 -2 24 14 11 -13 -15 -32 -65 -45 -149 -55 -224 -26 -54 21 -81 44 -120
105 -126 197 87 445 296 345z"/>
<path d="M4859 7381 c-38 -39 -40 -97 -5 -138 l24 -28 573 -3 c634 -3 606 -5
634 62 17 40 10 73 -23 109 l-26 27 -574 0 -574 0 -29 -29z"/>
<path d="M3656 4609 c-54 -64 -16 -154 71 -166 70 -9 150 5 183 34 42 35 42
92 1 134 -29 28 -32 29 -129 29 -100 0 -100 0 -126 -31z"/>
<path d="M3659 3461 c-23 -23 -29 -38 -29 -71 0 -33 6 -48 29 -71 l29 -29
1167 0 c1267 0 1207 -3 1233 55 21 45 15 84 -17 116 l-29 29 -1177 0 -1177 0
-29 -29z"/>
<path d="M3659 2871 c-48 -48 -32 -135 28 -160 21 -8 197 -11 660 -9 l631 3
26 24 c31 30 42 73 26 112 -25 60 -8 59 -705 59 l-637 0 -29 -29z"/>
<path d="M7958 7163 c23 -2 61 -2 85 0 23 2 4 4 -43 4 -47 0 -66 -2 -42 -4z"/>
<path d="M8173 7143 c9 -2 25 -2 35 0 9 3 1 5 -18 5 -19 0 -27 -2 -17 -5z"/>
<path d="M7878 7133 c23 -2 61 -2 85 0 23 2 4 4 -43 4 -47 0 -66 -2 -42 -4z"/>
<path d="M8178 7123 c12 -2 32 -2 45 0 12 2 2 4 -23 4 -25 0 -35 -2 -22 -4z"/>
<path d="M7805 7110 c3 -5 13 -10 21 -10 8 0 14 5 14 10 0 6 -9 10 -21 10 -11
0 -17 -4 -14 -10z"/>
<path d="M8000 7100 c0 -23 10 -26 28 -8 18 18 15 28 -8 28 -13 0 -20 -7 -20
-20z"/>
<path d="M8052 7068 c-18 -18 -15 -28 8 -28 13 0 20 7 20 20 0 23 -10 26 -28
8z"/>
<path d="M8355 7070 c3 -5 8 -10 11 -10 2 0 4 5 4 10 0 6 -5 10 -11 10 -5 0
-7 -4 -4 -10z"/>
<path d="M6898 6113 c7 -3 16 -2 19 1 4 3 -2 6 -13 5 -11 0 -14 -3 -6 -6z"/>
<path d="M6940 6106 c0 -2 7 -7 16 -10 8 -3 12 -2 9 4 -6 10 -25 14 -25 6z"/>
<path d="M6995 6100 c-17 -6 -16 -7 8 -12 15 -3 30 -2 32 2 7 12 -18 18 -40
10z"/>
<path d="M7651 6064 c0 -11 3 -14 6 -6 3 7 2 16 -1 19 -3 4 -6 -2 -5 -13z"/>
<path d="M7673 5960 c0 -25 2 -35 4 -22 2 12 2 32 0 45 -2 12 -4 2 -4 -23z"/>
<path d="M6285 5855 c-14 -13 -25 -36 -25 -50 0 -30 41 -75 68 -75 35 0 72 38
72 75 0 24 -7 39 -26 54 -35 27 -59 26 -89 -4z"/>
<path d="M6682 5777 c-28 -29 -28 -67 -1 -101 42 -53 123 -21 123 49 0 68 -77
100 -122 52z"/>
<path d="M6436 5518 c-37 -53 2 -118 87 -143 89 -27 146 -15 173 36 19 37 18
52 -5 81 -17 21 -34 27 -103 36 -117 17 -134 16 -152 -10z"/>
<path d="M6610 4749 c0 -5 5 -7 10 -4 6 3 10 8 10 11 0 2 -4 4 -10 4 -5 0 -10
-5 -10 -11z"/>
<path d="M5143 4126 c1 -16 9 -32 17 -34 12 -4 13 -2 4 9 -7 8 -14 23 -17 34
-4 13 -5 9 -4 -9z"/>
<path d="M6583 4065 c0 -7 6 -11 14 -8 7 3 13 6 13 8 0 2 -6 5 -13 8 -8 3 -14
-1 -14 -8z"/>
<path d="M5633 4003 c9 -2 25 -2 35 0 9 3 1 5 -18 5 -19 0 -27 -2 -17 -5z"/>
<path d="M5520 3990 c0 -5 5 -10 10 -10 6 0 10 5 10 10 0 6 -4 10 -10 10 -5 0
-10 -4 -10 -10z"/>
<path d="M6290 3990 c0 -6 5 -8 11 -4 6 3 16 0 21 -7 8 -12 9 -11 5 1 -4 18
-37 27 -37 10z"/>
<path d="M6405 3990 l-20 -9 20 0 c17 -1 18 -3 5 -12 -12 -8 -12 -10 -1 -7 8
2 15 12 17 21 1 9 2 17 1 16 -1 0 -11 -4 -22 -9z"/>
<path d="M6240 3970 c0 -5 7 -10 15 -10 8 0 15 5 15 10 0 6 -7 10 -15 10 -8 0
-15 -4 -15 -10z"/>
<path d="M5680 3935 c0 -8 9 -15 20 -15 24 0 27 15 4 24 -22 9 -24 8 -24 -9z"/>
<path d="M6300 3930 c-13 -8 -12 -10 3 -10 9 0 17 5 17 10 0 12 -1 12 -20 0z"/>
<path d="M6720 3640 c0 -29 4 -40 15 -40 11 0 15 11 15 40 0 29 -4 40 -15 40
-11 0 -15 -11 -15 -40z"/>
<path d="M7761 3502 c0 -13 -5 -20 -11 -17 -6 4 -10 -5 -10 -19 0 -14 5 -26
10 -26 13 0 13 -77 1 -82 -14 -4 -25 -58 -13 -58 5 0 13 12 17 27 3 15 11 31
17 34 7 5 8 31 1 85 -6 44 -11 69 -12 56z"/>
<path d="M6820 3400 c0 -22 5 -40 10 -40 6 0 10 18 10 40 0 22 -4 40 -10 40
-5 0 -10 -18 -10 -40z"/>
<path d="M7870 3420 c0 -19 3 -21 12 -12 9 9 9 15 0 24 -9 9 -12 7 -12 -12z"/>
<path d="M7842 3370 c0 -14 2 -19 5 -12 2 6 2 18 0 25 -3 6 -5 1 -5 -13z"/>
<path d="M6785 3310 c3 -5 8 -10 11 -10 2 0 4 5 4 10 0 6 -5 10 -11 10 -5 0
-7 -4 -4 -10z"/>
<path d="M7680 3189 c0 -5 5 -7 10 -4 6 3 10 8 10 11 0 2 -4 4 -10 4 -5 0 -10
-5 -10 -11z"/>
<path d="M7388 1763 c12 -2 30 -2 40 0 9 3 -1 5 -23 4 -22 0 -30 -2 -17 -4z"/>
<path d="M7585 1750 c-4 -6 13 -10 44 -10 42 0 51 -3 52 -17 0 -15 2 -15 9 2
12 27 12 43 0 25 -6 -10 -10 -11 -10 -2 0 15 -86 17 -95 2z"/>
<path d="M7517 1691 c-4 -17 -2 -18 18 -11 13 5 27 6 31 2 5 -4 2 1 -5 11 -18
23 -37 22 -44 -2z"/>
<path d="M7047 1706 c-5 -15 -6 -31 -3 -34 8 -8 18 25 14 45 -3 13 -6 10 -11
-11z"/>
<path d="M6990 1629 c0 -5 5 -7 10 -4 6 3 10 8 10 11 0 2 -4 4 -10 4 -5 0 -10
-5 -10 -11z"/>
</g>
</svg>
